<svg width="20" height="24" viewBox="0 0 20 24" fill="none" xmlns="http://www.w3.org/2000/svg">
<path d="M15.7495 23.8888C15.6965 23.9167 15.6413 23.9395 15.5846 23.9572C15.5248 23.9754 15.4635 23.9872 15.4015 23.9923C15.3406 23.9983 15.2793 23.9983 15.2184 23.9923C15.1567 23.9875 15.0955 23.9777 15.0352 23.963C14.9724 23.9454 14.9111 23.9219 14.8521 23.8927V23.8927C14.7929 23.8641 14.7365 23.8294 14.6836 23.7892V23.7892C14.6327 23.7485 14.5849 23.7034 14.5408 23.6545C14.4956 23.6024 14.4557 23.5455 14.4217 23.4845L12.7589 20.5783L11.3506 22.3361C11.2872 22.4166 11.22 22.4935 11.1491 22.5666C11.0777 22.6388 11.0063 22.7052 10.933 22.7619L10.9184 22.7736C10.8482 22.8316 10.7748 22.8851 10.6986 22.9337C10.6258 22.9805 10.5499 23.0217 10.4716 23.0568C10.4123 23.0859 10.3511 23.11 10.2884 23.1291C10.2286 23.1487 10.1673 23.1631 10.1053 23.172C10.041 23.1814 9.97609 23.186 9.91116 23.1857C9.84972 23.1831 9.78853 23.1759 9.72803 23.1642C9.65403 23.1492 9.58163 23.1263 9.51193 23.0959C9.44355 23.0665 9.37844 23.0292 9.31781 22.9845C9.25715 22.9397 9.20073 22.8887 9.14933 22.8322V22.8322C9.0984 22.7714 9.05245 22.706 9.01198 22.6369L8.99183 22.5978L8.97535 22.5568L8.73911 21.8752V21.842L7.49197 8.44937C7.47996 8.36326 7.47996 8.27572 7.49197 8.18961C7.50626 8.10438 7.53283 8.02203 7.57072 7.94546C7.6311 7.82388 7.7185 7.71994 7.82527 7.64273V7.64273C7.87624 7.60513 7.93166 7.57492 7.99009 7.55289C8.04913 7.52941 8.11063 7.51367 8.17323 7.50601V7.50601C8.25199 7.4966 8.33163 7.49989 8.40947 7.51578C8.48922 7.53267 8.5663 7.56161 8.63838 7.60171L8.69332 7.63296C11.1675 9.35953 13.4731 10.965 15.7696 12.5646L19.2491 14.9845C19.3124 15.0279 19.3736 15.0749 19.4323 15.1252V15.1252C19.4851 15.1693 19.5352 15.2169 19.5824 15.2677L19.5934 15.2814C19.6404 15.3313 19.6838 15.3849 19.7234 15.4416C19.7629 15.4948 19.7978 15.5517 19.8278 15.6115C19.8657 15.6823 19.897 15.7569 19.9212 15.8341C19.9447 15.9083 19.9607 15.9849 19.9688 16.0627C19.9771 16.1412 19.9771 16.2204 19.9688 16.299V16.299C19.9615 16.3777 19.9474 16.4555 19.9267 16.5314C19.8883 16.6629 19.8302 16.7869 19.7546 16.8986C19.718 16.9562 19.6769 17.0104 19.6319 17.0607C19.5854 17.1141 19.5352 17.1637 19.4817 17.2091C19.4145 17.2683 19.3435 17.3224 19.2693 17.3712C19.1901 17.4219 19.1081 17.4675 19.0239 17.508C18.9378 17.549 18.8407 17.588 18.7565 17.6212C18.6634 17.6549 18.5687 17.683 18.4726 17.7052V17.7052C17.9654 17.8107 17.4599 17.9416 16.9581 18.0705L16.363 18.2209L18.0112 21.1388C18.0449 21.201 18.0731 21.2664 18.0954 21.3341C18.1619 21.5358 18.1714 21.7537 18.1229 21.9611V21.9806C18.1079 22.0436 18.0877 22.1051 18.0624 22.1642C18.0357 22.2247 18.0045 22.2828 17.969 22.338C17.9323 22.3948 17.8906 22.4478 17.8445 22.4962C17.7982 22.5445 17.7479 22.5883 17.6943 22.6271L17.3281 22.8791C16.8215 23.2494 16.2943 23.5866 15.7495 23.8888V23.8888ZM6.89129 3.80093C6.97887 3.97948 6.99837 4.18721 6.94573 4.38073C6.89309 4.57426 6.77237 4.7386 6.6088 4.83944C6.44522 4.94028 6.25144 4.96982 6.06793 4.92188C5.88442 4.87394 5.72537 4.75223 5.62401 4.58218L4.15894 1.84781C4.07589 1.66992 4.05953 1.46497 4.11318 1.27467C4.16682 1.08437 4.28645 0.923019 4.4477 0.823465C4.60896 0.723911 4.79972 0.693633 4.98117 0.738795C5.16262 0.783956 5.32111 0.901162 5.42439 1.06656L6.90045 3.80093H6.89129ZM4.14429 12.9357C4.31108 12.8471 4.50326 12.8297 4.68169 12.8869C4.86012 12.9441 5.01141 13.0717 5.10476 13.2437C5.1981 13.4156 5.22649 13.6191 5.18415 13.8126C5.1418 14.0061 5.0319 14.1752 4.87682 14.2853L2.31296 15.8595C2.14616 15.9481 1.95399 15.9656 1.77556 15.9083C1.59712 15.8511 1.44583 15.7235 1.35249 15.5516C1.25914 15.3796 1.23075 15.1761 1.2731 14.9826C1.31544 14.7891 1.42534 14.6201 1.58042 14.5099L4.14429 12.9357ZM3.7652 7.7814C3.94537 7.84183 4.09669 7.97413 4.18758 8.1507C4.27847 8.32727 4.3019 8.53445 4.25299 8.729C4.20407 8.92355 4.08659 9.09044 3.92507 9.19482C3.76355 9.29921 3.57046 9.33303 3.38612 9.28921L0.549381 8.4689C0.375254 8.40471 0.2302 8.2729 0.143128 8.09975C0.0560557 7.92659 0.03336 7.7248 0.0795639 7.53459C0.125768 7.34438 0.237478 7.17972 0.392431 7.07344C0.547385 6.96715 0.734201 6.92703 0.915648 6.96109L3.75971 7.7814H3.7652ZM15.0169 8.04117C14.8501 8.12974 14.658 8.14719 14.4795 8.08998C14.3011 8.03276 14.1498 7.90518 14.0565 7.7332C13.9631 7.56122 13.9347 7.35777 13.9771 7.16426C14.0194 6.97074 14.1293 6.80171 14.2844 6.69156L16.8483 5.11734C17.015 5.02877 17.2072 5.01132 17.3857 5.06853C17.5641 5.12574 17.7154 5.25332 17.8087 5.4253C17.9021 5.59728 17.9305 5.80074 17.8881 5.99425C17.8458 6.18777 17.7359 6.3568 17.5808 6.46695L15.0169 8.04117ZM11.6216 4.01773C11.6025 4.12297 11.5633 4.22289 11.5065 4.31128C11.4496 4.39967 11.3763 4.47463 11.2911 4.5315C11.2059 4.58838 11.1106 4.62594 11.0112 4.64187C10.9119 4.65779 10.8105 4.65173 10.7134 4.62406C10.6162 4.59639 10.5255 4.5477 10.4468 4.48103C10.3681 4.41436 10.3031 4.33113 10.2559 4.23651C10.2086 4.1419 10.1802 4.03793 10.1722 3.93108C10.1643 3.82422 10.177 3.71676 10.2097 3.61539L10.9642 0.586089C11.0244 0.400382 11.148 0.245681 11.3103 0.152818C11.4727 0.0599555 11.6619 0.0357504 11.8402 0.0850271C12.0186 0.134304 12.173 0.253444 12.2726 0.418702C12.3723 0.58396 12.4099 0.7832 12.378 0.976714L11.6216 4.01773ZM15.3154 22.838L17.0863 21.6935C16.4673 20.5959 15.4656 19.047 14.9785 17.9494C14.9692 17.9267 14.9619 17.9031 14.9565 17.8791C14.9308 17.7578 14.9513 17.6307 15.0134 17.5256C15.0756 17.4205 15.1743 17.346 15.288 17.3185C16.2732 17.0783 17.2805 16.8517 18.2584 16.59C18.3713 16.5631 18.4816 16.5252 18.588 16.4767C18.6729 16.4373 18.7529 16.3868 18.8261 16.3263C18.8511 16.3036 18.8744 16.2788 18.8957 16.2521C18.9065 16.238 18.9151 16.2222 18.9213 16.2052L18.9103 16.1701C18.8889 16.1312 18.8617 16.0962 18.8298 16.0666C18.7827 16.0207 18.7318 15.9795 18.6778 15.9435L8.61824 8.9357C9.00465 13.1076 9.57053 17.549 9.79945 21.6916C9.80547 21.7575 9.8165 21.8228 9.83241 21.8869C9.84381 21.9291 9.85979 21.9697 9.88003 22.008L9.90384 22.0353C9.92145 22.0381 9.93934 22.0381 9.95694 22.0353C9.98902 22.0275 10.0203 22.0164 10.0503 22.0021C10.1345 21.9619 10.2133 21.91 10.2848 21.8478C10.3739 21.7688 10.4566 21.6819 10.532 21.588C10.8854 21.1447 12.2901 19.2169 12.6197 19.0138C12.7194 18.9506 12.8385 18.932 12.951 18.962C13.0635 18.992 13.1603 19.0682 13.2204 19.174L15.3154 22.8361V22.838Z" fill="#141414"/>
</svg>
