<svg width="32" height="32" viewBox="0 0 32 32" fill="none" xmlns="http://www.w3.org/2000/svg">
<g clip-path="url(#clip0_49_194)">
<path d="M15.9939 0.201172C7.17145 0.201172 -0.00610352 7.37873 -0.00610352 16.2012C-0.00610352 25.0236 7.17145 32.2012 15.9939 32.2012C24.8163 32.2012 31.9939 25.0236 31.9939 16.2012C31.9939 7.37873 24.8163 0.201172 15.9939 0.201172ZM15.9939 29.8012C8.18082 29.8012 2.3939 24.0141 2.3939 16.2012C2.3939 8.3882 8.18082 2.60117 15.9939 2.60117C23.807 2.60117 29.5939 8.3882 29.5939 16.2012C29.5939 24.0141 23.807 29.8012 15.9939 29.8012Z" fill="#AEA7A7"/>
<path d="M19.8218 8.20117H17.5215C15.6389 8.20117 14.1072 9.67292 14.1072 11.4819V13.9683H11.9643C11.4283 13.9683 10.9939 14.3857 10.9939 14.9007C10.9939 15.5357 11.418 16.3507 11.9643 16.3507H14.1968V24.5002C14.2864 24.9414 14.509 25.1954 15.0449 25.1954C16.7086 25.1954 16.7412 25.3151 16.7412 24.4664V20.3057V16.3507H19.4753C19.9771 16.3507 20.3338 15.5357 20.3338 14.9007C20.3338 14.3857 19.8994 13.9683 19.3634 13.9683H16.7412V11.8685C16.7412 11.0877 16.7769 10.646 17.5894 10.646H20.1338C21.1608 10.646 20.982 9.53112 20.982 9.01612C20.982 8.50113 20.3576 8.20117 19.8218 8.20117Z" fill="#AEA7A7"/>
</g>
<defs>
<clipPath id="clip0_49_194">
<rect width="32" height="32" fill="white"/>
</clipPath>
</defs>
</svg>
