<svg width="32" height="32" viewBox="0 0 32 32" fill="none" xmlns="http://www.w3.org/2000/svg">
<g clip-path="url(#clip0_49_198)">
<path d="M22.467 0H9.53297C4.27647 0 0 4.27647 0 9.53297V22.467C0 27.7235 4.27647 32 9.53297 32H22.467C27.7235 32 32 27.7235 32 22.467V9.53297C31.9999 4.27647 27.7235 0 22.467 0ZM29.6 22.467C29.6 25.954 25.887 29.6 22.4 29.6H9.53297C6.046 29.6 2.4 25.954 2.4 22.467V9.53297C2.4 6.04594 6.046 2.4 9.53297 2.4H22.467C25.954 2.4 29.6 6.04594 29.6 9.53297V22.467Z" fill="#AEA7A7"/>
<path d="M16 9C12.0068 9 9 12.0069 9 16C9 19.9931 12.0068 23 16 23C19.9931 23 23 19.9931 23 15.9999C23 12.0068 19.9931 9 16 9ZM16 20.9C13.5561 20.9 11.1 18.4439 11.1 16C11.1 13.5561 13.5561 11.1 16 11.1C18.4439 11.1 20.9 13.5561 20.9 16C20.9 18.4438 18.4438 20.9 16 20.9Z" fill="#AEA7A7"/>
<path d="M23.44 9.59973C24.2353 9.59973 24.88 8.7939 24.88 7.79987C24.88 6.80583 24.2353 6 23.44 6C22.6447 6 22 6.80583 22 7.79987C22 8.7939 22.6447 9.59973 23.44 9.59973Z" fill="#AEA7A7"/>
</g>
<defs>
<clipPath id="clip0_49_198">
<rect width="32" height="32" fill="white"/>
</clipPath>
</defs>
</svg>
