<svg width="318" height="209" viewBox="0 0 318 209" fill="none" xmlns="http://www.w3.org/2000/svg">
<path d="M0 0H318V209H0V0Z" fill="black"/>
<path d="M83.1502 130.688L82.7213 135.83C81.4058 135.716 79.976 135.658 78.4317 135.658C76.9447 135.658 75.6864 135.687 74.6569 135.744C73.8562 142.029 73.3415 148.857 73.1127 156.227H67.1073C66.7641 154.742 66.5926 152.771 66.5926 150.314C66.5926 147.857 66.6498 145.743 66.7641 143.972C66.9357 142.143 67.1359 140.344 67.3647 138.572C67.5935 136.801 67.7078 135.773 67.7078 135.487C66.9071 135.43 65.0197 135.401 62.0456 135.401C59.0716 135.401 57.0126 135.458 55.8687 135.573C49.2342 144.486 43.1144 151.257 37.5094 155.885C31.9044 160.455 26.2994 162.741 20.6944 162.741C17.9491 162.741 15.6613 161.912 13.8311 160.256C11.9437 158.599 11 156.399 11 153.656C11 148.457 14.9464 143.715 22.8392 139.429C30.7891 135.144 41.0554 132.259 53.6381 130.773C55.1252 128.488 57.8991 124.974 61.9598 120.232C66.0206 115.432 70.0242 111.261 73.9706 107.719C75.6864 103.719 77.0305 100.948 78.0028 99.4054C79.0323 97.8056 80.0332 97.0057 81.0054 97.0057C81.9777 97.0057 82.7785 97.377 83.4076 98.1198C84.0367 98.8626 84.3513 99.8339 84.3513 101.034C84.3513 102.176 83.6936 103.891 82.3781 106.176C81.1198 108.404 79.8044 111.89 78.4317 116.632C77.0591 121.317 76.1154 125.745 75.6006 129.916C78.5747 129.916 81.0912 130.173 83.1502 130.688ZM39.3968 148.6C44.1439 144.086 47.7185 139.801 50.1207 135.744C40.5121 136.315 33.0769 138.115 27.815 141.143C22.6104 144.172 20.0081 147.4 20.0081 150.828C20.0081 152.314 20.4942 153.485 21.4665 154.342C22.496 155.199 23.8401 155.627 25.4987 155.627C29.9598 155.627 34.5925 153.285 39.3968 148.6ZM68.7373 129.916C69.1377 127.974 69.6524 125.545 70.2816 122.631C70.9679 119.66 71.3683 117.918 71.4827 117.403C68.7373 120.032 66.8213 121.974 65.7347 123.231C64.648 124.431 62.732 126.774 59.9867 130.259C60.959 130.202 62.1314 130.173 63.5041 130.173C64.9339 130.116 66.1064 130.059 67.0215 130.002C67.9366 129.945 68.5086 129.916 68.7373 129.916Z" fill="white"/>
<path d="M125.134 150.828L125.392 153.056C125.163 153.228 122.503 154.256 117.413 156.142C116.727 159.913 115.84 163.627 114.753 167.283C113.724 170.997 112.666 173.797 111.579 175.682C110.55 177.625 109.32 179.539 107.89 181.425C105.03 185.196 101.17 187.081 96.3084 187.081C93.9063 187.081 91.9903 186.338 90.5604 184.853C89.1306 183.367 88.4156 181.339 88.4156 178.768C88.4156 168.883 96.7088 160.941 113.295 154.942L117.928 138.658C113.009 146.029 108.577 150.571 104.63 152.285C102.686 153.199 100.627 153.656 98.4532 153.656C96.337 153.656 94.6212 152.971 93.3057 151.599C92.0475 150.228 91.4183 148.228 91.4183 145.6C91.4183 142.972 92.3048 139.315 94.0779 134.63C95.9081 129.888 97.9384 125.917 100.169 122.717L104.373 124.517C104.201 124.688 103.4 126.202 101.971 129.059C99.4541 134.259 98.1958 138.115 98.1958 140.629C98.1958 143.143 98.682 144.829 99.6543 145.686C100.627 146.543 102.056 146.971 103.944 146.971C105.831 146.971 107.947 145.857 110.292 143.629C112.694 141.343 116.384 136.858 121.359 130.173L124.448 131.973C123.99 133.859 122.961 137.287 121.359 142.258C119.815 147.171 118.757 150.942 118.185 153.571L125.134 150.828ZM112.78 157.513C109.177 159.17 106.003 161.055 103.257 163.169C98.11 167.055 95.5363 170.826 95.5363 174.482C95.5363 175.854 95.9366 176.968 96.7374 177.825C97.5381 178.682 98.539 179.11 99.7401 179.11C105.459 179.11 109.806 171.911 112.78 157.513Z" fill="white"/>
<path d="M169.846 146.8L171.648 148.257C170.675 150.657 169.131 152.685 167.015 154.342C164.956 155.999 163.069 156.827 161.353 156.827C159.694 156.827 158.379 156.256 157.406 155.113C156.434 153.913 155.948 152.371 155.948 150.485C155.948 148.6 156.262 146.171 156.892 143.2C154.203 147.428 151.315 150.742 148.227 153.142C145.138 155.542 142.536 156.742 140.42 156.742C137.217 156.742 135.615 154.456 135.615 149.885C135.615 146 136.931 141.029 139.562 134.973C142.193 128.916 144.109 125.402 145.31 124.431L149.428 126.231C147.083 130.002 145.31 133.716 144.109 137.372C142.908 141.029 142.307 143.486 142.307 144.743C142.307 145.943 142.679 146.914 143.422 147.657C144.223 148.4 145.138 148.771 146.168 148.771C148.455 148.771 151.287 146.686 154.661 142.515C158.093 138.287 161.582 132.002 165.128 123.66L169.503 125.631C169.388 126.088 168.073 129.402 165.556 135.573C163.097 141.743 161.867 145.457 161.867 146.714C161.867 147.914 162.125 148.828 162.64 149.457C163.212 150.085 163.755 150.399 164.27 150.399C164.842 150.399 165.271 150.371 165.556 150.314C165.842 150.257 166.128 150.142 166.414 149.971C166.7 149.8 166.929 149.657 167.101 149.542C167.33 149.428 167.587 149.228 167.873 148.943L168.559 148.343C168.674 148.171 168.874 147.914 169.16 147.571C169.503 147.171 169.732 146.914 169.846 146.8Z" fill="white"/>
<path d="M238.173 145.086L239.974 146.8C236.714 152.628 232.968 155.542 228.736 155.542C227.02 155.542 225.676 155.085 224.703 154.17C223.788 153.199 223.331 151.942 223.331 150.399C223.331 148.8 224.274 146.086 226.162 142.258C228.049 138.429 229.05 135.516 229.164 133.516C229.222 132.602 228.936 131.859 228.307 131.287C227.735 130.716 226.934 130.43 225.904 130.43C224.875 130.43 223.817 130.688 222.73 131.202C221.701 131.659 220.671 132.43 219.642 133.516C218.669 134.601 217.754 135.658 216.896 136.687C216.096 137.715 215.181 139.172 214.151 141.058C213.179 142.943 212.349 144.514 211.663 145.771C210.462 148.114 208.746 151.628 206.516 156.313L201.368 154.513C201.368 154.342 202.312 151.114 204.199 144.829C206.087 138.544 207.03 134.801 207.03 133.601C207.03 132.402 206.744 131.545 206.172 131.03C205.601 130.459 204.886 130.173 204.028 130.173C201.454 130.173 197.879 133.373 193.304 139.772C188.786 146.171 185.897 151.628 184.639 156.142L179.749 154.513C180.035 151.485 181.379 146.057 183.781 138.229C186.183 130.345 188.214 124.974 189.872 122.117L193.733 123.488C191.96 127.431 190.73 130.773 190.044 133.516C189.357 136.201 188.757 139.087 188.242 142.172C193.161 135.144 197.279 130.23 200.596 127.431C203.913 124.574 206.916 123.146 209.604 123.146C212.521 123.146 213.979 124.603 213.979 127.516C213.979 128.659 213.465 130.916 212.435 134.287C211.463 137.658 210.691 140.315 210.119 142.258C218.012 129.573 225.075 123.231 231.309 123.231C232.854 123.231 234.083 123.717 234.998 124.688C235.913 125.602 236.371 127.002 236.371 128.888C236.371 130.716 235.284 133.773 233.111 138.058C230.995 142.343 229.937 145.057 229.937 146.2C229.937 147.286 230.165 148.085 230.623 148.6C231.08 149.114 231.652 149.371 232.339 149.371C233.826 149.371 235.77 147.943 238.173 145.086Z" fill="white"/>
<path d="M143.652 50.142L153.811 42.3032L164.576 34.4643H168.238L183.932 55.3679V60.0712L163.53 76.794H159.345L143.652 55.8904V50.142Z" fill="white"/>
<path d="M212.637 58.5951C212.637 85.7252 191.558 107.718 165.556 107.718C139.555 107.718 118.476 85.7252 118.476 58.5951C118.476 31.465 139.555 9.47183 165.556 9.47183C191.558 9.47183 212.637 31.465 212.637 58.5951Z" fill="#E81C1C"/>
<path d="M117.298 119.974L114.194 119.51L111.917 117.056L111.269 114.317L127.846 102.529L131.468 103.071L194.271 60.0497L149.804 93.6596L132.632 105.887L131.728 108.394L120.349 117.26L118.565 118.579L117.298 119.974Z" fill="white"/>
<path d="M152.022 53.2775L154.637 51.1872L156.73 61.6389C154.891 59.394 153.86 58.1354 152.022 55.8904V53.2775Z" fill="black"/>
<path d="M157.253 53.2775V49.0968L158.822 46.4839L162.484 44.9161L163.007 69.4778L160.391 67.91L157.253 53.2775Z" fill="black"/>
<path d="M166.669 66.8648L165.099 43.3483L166.669 42.8258L168.238 44.3935L170.331 47.5291L169.284 65.297L168.238 66.3422L166.669 66.8648Z" fill="black"/>
<path d="M172.946 61.6389V51.1872L176.608 55.8904L177.131 56.9356L176.085 60.0712L172.946 61.6389Z" fill="black"/>
<path d="M120.111 175.041L123.25 173.995L134.236 170.86L156.73 166.679L177.654 162.498L188.64 160.408L206.949 158.84H223.165L245.136 160.408L272.861 165.111L276 168.247L269.723 175.041H265.014L252.983 170.86L239.905 166.679L223.165 165.111H203.287L180.27 166.679L153.068 170.86L120.111 179.221V175.041Z" fill="#E81C1C"/>
<path d="M187.23 198.982H184.5V175.041H187.443V183.582C188.685 182.025 190.271 181.246 192.2 181.246C193.268 181.246 194.276 181.464 195.224 181.9C196.183 182.324 196.968 182.928 197.578 183.712C198.199 184.485 198.684 185.422 199.033 186.521C199.382 187.621 199.556 188.797 199.556 190.049C199.556 193.021 198.82 195.318 197.349 196.94C195.878 198.563 194.112 199.374 192.052 199.374C190.004 199.374 188.396 198.519 187.23 196.81V198.982ZM187.197 190.179C187.197 192.259 187.481 193.761 188.047 194.687C188.974 196.2 190.227 196.957 191.807 196.957C193.093 196.957 194.205 196.401 195.142 195.291C196.079 194.17 196.548 192.504 196.548 190.294C196.548 188.029 196.096 186.358 195.191 185.28C194.298 184.202 193.213 183.663 191.938 183.663C190.652 183.663 189.54 184.224 188.603 185.345C187.666 186.456 187.197 188.067 187.197 190.179Z" fill="#E81C1C"/>
<path d="M214.983 196.842C213.893 197.768 212.842 198.421 211.828 198.802C210.826 199.183 209.747 199.374 208.591 199.374C206.684 199.374 205.218 198.911 204.194 197.985C203.17 197.049 202.657 195.857 202.657 194.409C202.657 193.56 202.848 192.787 203.229 192.09C203.622 191.382 204.129 190.816 204.75 190.392C205.382 189.967 206.09 189.646 206.875 189.428C207.453 189.276 208.324 189.129 209.491 188.987C211.866 188.704 213.616 188.367 214.738 187.975C214.749 187.572 214.754 187.316 214.754 187.207C214.754 186.01 214.476 185.166 213.921 184.676C213.169 184.012 212.052 183.68 210.569 183.68C209.185 183.68 208.161 183.925 207.496 184.414C206.842 184.894 206.357 185.748 206.041 186.978L203.164 186.587C203.426 185.356 203.856 184.366 204.456 183.614C205.055 182.852 205.921 182.27 207.055 181.867C208.188 181.453 209.501 181.246 210.995 181.246C212.477 181.246 213.681 181.42 214.607 181.769C215.534 182.117 216.215 182.558 216.651 183.092C217.087 183.614 217.392 184.278 217.566 185.084C217.664 185.585 217.713 186.489 217.713 187.795V191.714C217.713 194.447 217.773 196.178 217.893 196.908C218.024 197.626 218.275 198.318 218.645 198.982H215.572C215.267 198.372 215.07 197.659 214.983 196.842ZM214.738 190.277C213.67 190.713 212.068 191.083 209.932 191.388C208.722 191.562 207.867 191.758 207.365 191.976C206.864 192.193 206.477 192.515 206.205 192.939C205.932 193.353 205.796 193.816 205.796 194.327C205.796 195.111 206.09 195.764 206.679 196.287C207.278 196.81 208.15 197.071 209.294 197.071C210.428 197.071 211.436 196.826 212.319 196.336C213.201 195.835 213.85 195.155 214.264 194.295C214.58 193.631 214.738 192.651 214.738 191.355V190.277Z" fill="#E81C1C"/>
<path d="M223.678 199.374V182.03H226.327V184.659C227.002 183.429 227.624 182.618 228.19 182.226C228.768 181.834 229.4 181.638 230.087 181.638C231.078 181.638 232.086 181.954 233.111 182.585L232.097 185.313C231.378 184.888 230.659 184.676 229.939 184.676C229.296 184.676 228.719 184.872 228.207 185.264C227.694 185.645 227.329 186.178 227.111 186.864C226.784 187.909 226.621 189.052 226.621 190.294V199.374H223.678Z" fill="#E81C1C"/>
<path d="M304.198 142.943L306 144.657C302.74 150.485 298.993 153.399 294.761 153.399C293.045 153.399 291.701 152.942 290.729 152.028C289.814 151.057 289.356 149.8 289.356 148.257C289.356 146.657 290.3 143.943 292.187 140.115C294.075 136.287 295.075 133.373 295.19 131.373C295.247 130.459 294.961 129.716 294.332 129.145C293.76 128.573 292.959 128.288 291.93 128.288C290.9 128.288 289.842 128.545 288.756 129.059C287.726 129.516 286.697 130.288 285.667 131.373C284.695 132.459 283.78 133.516 282.922 134.544C282.121 135.573 281.206 137.03 280.176 138.915C279.204 140.801 278.375 142.372 277.689 143.629C276.487 145.971 274.772 149.485 272.541 154.17L267.394 152.371C267.394 152.199 268.337 148.971 270.225 142.686C272.112 136.401 273.056 132.659 273.056 131.459C273.056 130.259 272.77 129.402 272.198 128.888C271.626 128.316 270.911 128.031 270.053 128.031C267.479 128.031 263.905 131.23 259.329 137.63C254.811 144.029 251.923 149.485 250.664 153.999L245.774 152.371C246.06 149.342 247.404 143.915 249.807 136.087C252.209 128.202 254.239 122.831 255.898 119.974L259.758 121.346C257.985 125.288 256.756 128.631 256.069 131.373C255.383 134.059 254.782 136.944 254.268 140.029C259.186 133.001 263.304 128.088 266.621 125.288C269.939 122.431 272.941 121.003 275.63 121.003C278.546 121.003 280.005 122.46 280.005 125.374C280.005 126.517 279.49 128.773 278.461 132.144C277.488 135.516 276.716 138.172 276.144 140.115C284.037 127.431 291.101 121.089 297.335 121.089C298.879 121.089 300.109 121.574 301.024 122.546C301.939 123.46 302.396 124.86 302.396 126.745C302.396 128.573 301.31 131.63 299.136 135.915C297.02 140.201 295.962 142.915 295.962 144.057C295.962 145.143 296.191 145.943 296.648 146.457C297.106 146.971 297.678 147.228 298.364 147.228C299.851 147.228 301.796 145.8 304.198 142.943Z" fill="white"/>
</svg>
