<svg width="120" height="80" viewBox="0 0 120 80" fill="none" xmlns="http://www.w3.org/2000/svg">
<path d="M32.6718 51.0383L32.4776 53.2034C31.8819 53.1553 31.2344 53.1313 30.5351 53.1313C29.8617 53.1313 29.292 53.1433 28.8258 53.1674C28.4632 55.8137 28.2301 58.6885 28.1265 61.7919H25.4071C25.2517 61.1664 25.174 60.3364 25.174 59.302C25.174 58.2675 25.1999 57.3774 25.2517 56.6316C25.3294 55.8618 25.42 55.104 25.5236 54.3582C25.6272 53.6124 25.679 53.1794 25.679 53.0591C25.3164 53.035 24.4618 53.023 23.115 53.023C21.7683 53.023 20.8359 53.0471 20.3179 53.0952C17.3136 56.8481 14.5424 59.6989 12.0043 61.6476C9.46615 63.5722 6.92803 64.5345 4.38991 64.5345C3.14675 64.5345 2.11078 64.1856 1.28201 63.488C0.427336 62.7903 0 61.8641 0 60.7093C0 58.5201 1.78704 56.5234 5.36113 54.7191C8.96111 52.9148 13.61 51.6999 19.3078 51.0744C19.9812 50.1121 21.2373 48.6325 23.0762 46.6358C24.915 44.615 26.7279 42.8588 28.515 41.3672C29.292 39.6832 29.9006 38.5164 30.3409 37.8669C30.8071 37.1932 31.2603 36.8564 31.7006 36.8564C32.1409 36.8564 32.5035 37.0128 32.7883 37.3256C33.0732 37.6383 33.2157 38.0473 33.2157 38.5525C33.2157 39.0336 32.9178 39.7554 32.3222 40.7177C31.7524 41.6559 31.1567 43.1234 30.5351 45.1202C29.9135 47.0929 29.4862 48.9573 29.2531 50.7135C30.5999 50.7135 31.7394 50.8218 32.6718 51.0383ZM12.8589 58.5803C15.0086 56.6797 16.6273 54.8754 17.715 53.1674C13.364 53.4079 9.99708 54.1657 7.61436 55.4408C5.25753 56.7158 4.07912 58.0751 4.07912 59.5185C4.07912 60.144 4.29926 60.6372 4.73955 60.998C5.20573 61.3589 5.81436 61.5393 6.56544 61.5393C8.58558 61.5393 10.6834 60.553 12.8589 58.5803ZM26.1452 50.7135C26.3265 49.8956 26.5596 48.8731 26.8445 47.6462C27.1553 46.3952 27.3366 45.6614 27.3884 45.4449C26.1452 46.5516 25.2776 47.3695 24.7855 47.8988C24.2934 48.404 23.4258 49.3903 22.1826 50.8578C22.6229 50.8338 23.1539 50.8218 23.7754 50.8218C24.4229 50.7977 24.9538 50.7736 25.3682 50.7496C25.7826 50.7255 26.0416 50.7135 26.1452 50.7135Z" fill="white"/>
<path d="M51.6834 59.5185L51.8 60.4567C51.6964 60.5289 50.492 60.9619 48.187 61.7558C47.8762 63.3436 47.4748 64.9074 46.9827 66.447C46.5165 68.0108 46.0374 69.1896 45.5453 69.9835C45.0791 70.8014 44.5223 71.6073 43.8748 72.4012C42.5798 73.989 40.8317 74.7829 38.6302 74.7829C37.5425 74.7829 36.6748 74.4702 36.0274 73.8447C35.3799 73.2192 35.0561 72.3651 35.0561 71.2826C35.0561 67.1206 38.8115 63.7767 46.3223 61.2506L48.4201 54.3943C46.1928 57.4977 44.1856 59.4102 42.3986 60.132C41.518 60.5169 40.5856 60.7093 39.6014 60.7093C38.6432 60.7093 37.8662 60.4207 37.2705 59.8433C36.7007 59.2659 36.4158 58.4239 36.4158 57.3172C36.4158 56.2106 36.8173 54.6709 37.6202 52.6982C38.4489 50.7015 39.3684 49.0295 40.3784 47.6823L42.282 48.4401C42.2043 48.5123 41.8417 49.1498 41.1942 50.3526C40.0547 52.5419 39.4849 54.1657 39.4849 55.2243C39.4849 56.2828 39.705 56.9925 40.1453 57.3533C40.5856 57.7142 41.2331 57.8946 42.0878 57.8946C42.9424 57.8946 43.9007 57.4255 44.9626 56.4873C46.0503 55.525 47.7208 53.6365 49.9741 50.8218L51.3726 51.5796C51.1654 52.3735 50.6992 53.8169 49.9741 55.9099C49.2748 57.9788 48.7957 59.5666 48.5367 60.6733L51.6834 59.5185ZM46.0892 62.3332C44.4575 63.0309 43.0201 63.8248 41.777 64.7149C39.4461 66.3508 38.2806 67.9386 38.2806 69.4783C38.2806 70.0556 38.4619 70.5248 38.8245 70.8856C39.1871 71.2465 39.6403 71.4269 40.1842 71.4269C42.7741 71.4269 44.7424 68.3957 46.0892 62.3332Z" fill="white"/>
<path d="M71.9303 57.8224L72.7461 58.4359C72.3058 59.4463 71.6066 60.3004 70.6483 60.998C69.7159 61.6957 68.8612 62.0445 68.0843 62.0445C67.3332 62.0445 66.7375 61.8039 66.2972 61.3228C65.8569 60.8176 65.6368 60.168 65.6368 59.3741C65.6368 58.5802 65.7792 57.5578 66.0641 56.3068C64.8469 58.0871 63.539 59.4824 62.1404 60.4928C60.7418 61.5032 59.5634 62.0084 58.6052 62.0084C57.1548 62.0084 56.4296 61.0462 56.4296 59.1216C56.4296 57.4857 57.0253 55.3927 58.2167 52.8426C59.408 50.2925 60.2757 48.813 60.8195 48.404L62.6843 49.1618C61.6224 50.7496 60.8195 52.3133 60.2757 53.853C59.7318 55.3927 59.4598 56.4271 59.4598 56.9564C59.4598 57.4616 59.6282 57.8706 59.9649 58.1833C60.3275 58.4961 60.7418 58.6524 61.208 58.6524C62.244 58.6524 63.526 57.7743 65.0541 56.0181C66.608 54.2379 68.1879 51.5916 69.7936 48.0792L71.7749 48.9092C71.7231 49.1017 71.1274 50.497 69.9879 53.0952C68.8742 55.6934 68.3174 57.2571 68.3174 57.7864C68.3174 58.2916 68.4339 58.6765 68.667 58.9411C68.926 59.2058 69.172 59.3381 69.4051 59.3381C69.6641 59.3381 69.8584 59.326 69.9879 59.302C70.1173 59.2779 70.2468 59.2298 70.3763 59.1576C70.5058 59.0855 70.6094 59.0253 70.6871 58.9772C70.7907 58.9291 70.9073 58.8449 71.0368 58.7246L71.3476 58.472C71.3994 58.3998 71.49 58.2916 71.6195 58.1472C71.7749 57.9788 71.8785 57.8706 71.9303 57.8224Z" fill="white"/>
<path d="M102.871 57.1007L103.686 57.8224C102.21 60.2763 100.514 61.5032 98.5972 61.5032C97.8202 61.5032 97.2116 61.3108 96.7713 60.9259C96.3569 60.5169 96.1497 59.9876 96.1497 59.3381C96.1497 58.6645 96.5771 57.5217 97.4318 55.9099C98.2864 54.298 98.7397 53.0711 98.7915 52.2291C98.8174 51.8442 98.6879 51.5315 98.403 51.2909C98.144 51.0503 97.7814 50.93 97.3152 50.93C96.849 50.93 96.3699 51.0383 95.8778 51.2548C95.4116 51.4473 94.9454 51.772 94.4793 52.2291C94.039 52.6862 93.6246 53.1313 93.2361 53.5643C92.8735 53.9973 92.4591 54.6108 91.9929 55.4047C91.5527 56.1986 91.1771 56.8602 90.8663 57.3894C90.3224 58.3758 89.5455 59.8553 88.5354 61.828L86.2045 61.0702C86.2045 60.998 86.6318 59.6388 87.4865 56.9925C88.3412 54.3462 88.7685 52.7704 88.7685 52.2652C88.7685 51.76 88.639 51.3991 88.38 51.1826C88.121 50.942 87.7973 50.8218 87.4088 50.8218C86.2433 50.8218 84.6246 52.169 82.5527 54.8634C80.5067 57.5578 79.1987 59.8553 78.629 61.7558L76.4146 61.0702C76.5441 59.7952 77.1527 57.5097 78.2405 54.2139C79.3282 50.8939 80.2477 48.6325 80.9987 47.4297L82.7469 48.007C81.9441 49.667 81.3872 51.0744 81.0764 52.2291C80.7656 53.3598 80.4937 54.5747 80.2606 55.8738C82.4879 52.9147 84.3527 50.8458 85.8548 49.667C87.357 48.4641 88.7167 47.8627 89.9339 47.8627C91.2548 47.8627 91.9152 48.4762 91.9152 49.7031C91.9152 50.1842 91.6821 51.1345 91.216 52.5539C90.7757 53.9733 90.426 55.0919 90.167 55.9099C93.7411 50.5691 96.9397 47.8988 99.7627 47.8988C100.462 47.8988 101.019 48.1033 101.433 48.5123C101.848 48.8972 102.055 49.4866 102.055 50.2805C102.055 51.0503 101.563 52.3374 100.578 54.1417C99.6202 55.946 99.1411 57.0887 99.1411 57.5699C99.1411 58.0269 99.2447 58.3637 99.4519 58.5803C99.6591 58.7968 99.9181 58.905 100.229 58.905C100.902 58.905 101.783 58.3036 102.871 57.1007Z" fill="white"/>
<path d="M115.639 46.4914C114.189 46.4914 113.464 45.9501 113.464 44.8676C113.464 44.2661 113.645 43.7609 114.008 43.3519C114.37 42.943 114.837 42.7385 115.406 42.7385C115.976 42.7385 116.442 42.8949 116.805 43.2076C117.167 43.5203 117.349 43.9293 117.349 44.4345C117.349 44.9397 117.193 45.4088 116.883 45.8419C116.572 46.2749 116.157 46.4914 115.639 46.4914ZM115.134 57.1368L115.911 57.7503C115.29 58.8569 114.461 59.8072 113.425 60.6011C112.415 61.3709 111.496 61.7558 110.667 61.7558C109.216 61.7558 108.491 60.8176 108.491 58.9411C108.491 56.6076 109.527 53.5643 111.599 49.8114C112.065 48.9934 112.337 48.5123 112.415 48.3679L114.085 49.3061C113.542 50.2203 112.868 51.6758 112.065 53.6726C111.288 55.6693 110.9 56.9564 110.9 57.5338C110.9 58.0871 111.029 58.484 111.288 58.7246C111.547 58.9652 111.858 59.0855 112.221 59.0855C112.92 59.0855 113.891 58.4359 115.134 57.1368Z" fill="white"/>
<path d="M60.0687 17.1244L64.669 13.8238L69.544 10.5232H71.2022L78.3087 19.3247V21.3051L69.0702 28.3463H67.1752L60.0687 19.5448V17.1244Z" fill="white"/>
<path d="M91.3073 20.6836C91.3073 32.1067 81.7623 41.3671 69.9879 41.3671C58.2135 41.3671 48.6684 32.1067 48.6684 20.6836C48.6684 9.26038 58.2135 6.40693e-05 69.9879 6.40693e-05C81.7623 6.40693e-05 91.3073 9.26038 91.3073 20.6836Z" fill="#E81C1C"/>
<path d="M36.8542 4.80227V3.48205L37.8017 2.38186L38.9861 1.94179L45.382 8.10283V9.64309L69.0702 32.9671H68.3596L59.1212 23.9455L44.4344 10.3032L43.0131 10.0832L38.2755 5.90246L37.5648 5.24235L36.8542 4.80227Z" fill="white"/>
<path d="M34.2146 35.4811L32.8089 35.2857L31.7778 34.2523L31.4847 33.0991L38.9912 28.1357L40.6311 28.3638L69.0702 10.2496L48.9345 24.4012L41.1586 29.5496L40.7489 30.6051L35.5963 34.3383L34.7883 34.8935L34.2146 35.4811Z" fill="white"/>
<path d="M63.8588 18.4446L65.0432 17.5644L65.9908 21.9652C65.1582 21.0199 64.6914 20.49 63.8588 19.5448V18.4446Z" fill="#0D0D0D"/>
<path d="M66.2276 18.4446V16.6843L66.9383 15.5841L68.5965 14.924L68.8334 25.2657L67.6489 24.6056L66.2276 18.4446Z" fill="#0D0D0D"/>
<path d="M70.4915 24.1655L69.7809 14.2639L70.4915 14.0438L71.2022 14.7039L72.1497 16.0242L71.6759 23.5054L71.2022 23.9455L70.4915 24.1655Z" fill="#0D0D0D"/>
<path d="M73.3341 21.9652V17.5644L74.9923 19.5448L75.2292 19.9848L74.7554 21.3051L73.3341 21.9652Z" fill="#0D0D0D"/>
<path d="M49.409 69.7133L50.8303 69.2732L55.8048 67.953L65.9908 66.1927L75.4661 64.4324L80.4406 63.5522L88.7315 62.8921H96.0749L106.024 63.5522L118.579 65.5326L120 66.8528L117.157 69.7133H115.025L109.577 67.953L103.655 66.1927L96.0749 65.5326H87.0733L76.6505 66.1927L64.3326 67.953L49.409 71.4736V69.7133Z" fill="#E81C1C"/>
<path d="M54.3761 77.6552L55.6938 77.4627C55.7678 77.9532 55.9726 78.3291 56.3082 78.5904C56.6487 78.8517 57.1225 78.9823 57.7295 78.9823C58.3414 78.9823 58.7955 78.8677 59.0916 78.6385C59.3877 78.4047 59.5357 78.132 59.5357 77.8203C59.5357 77.5406 59.4049 77.3206 59.1434 77.1601C58.9608 77.0501 58.5068 76.9103 57.7813 76.7407C56.8042 76.5115 56.1256 76.3144 55.7456 76.1493C55.3705 75.9797 55.0843 75.7482 54.8869 75.4549C54.6944 75.1569 54.5982 74.8291 54.5982 74.4716C54.5982 74.1461 54.6772 73.8458 54.8351 73.5708C54.9979 73.2912 55.2175 73.0597 55.4939 72.8763C55.7012 72.7342 55.9825 72.615 56.3378 72.5187C56.6981 72.4179 57.083 72.3675 57.4926 72.3675C58.1095 72.3675 58.6499 72.45 59.1138 72.615C59.5826 72.78 59.928 73.0047 60.1501 73.2889C60.3722 73.5685 60.5252 73.9444 60.6091 74.4165L59.3062 74.5816C59.247 74.2057 59.0743 73.9123 58.7881 73.7014C58.5068 73.4906 58.107 73.3851 57.5888 73.3851C56.9769 73.3851 56.5401 73.4791 56.2786 73.6671C56.017 73.855 55.8862 74.075 55.8862 74.3272C55.8862 74.4876 55.9405 74.632 56.0491 74.7604C56.1577 74.8933 56.3279 75.0033 56.5599 75.0904C56.6931 75.1363 57.0855 75.2417 57.7369 75.4067C58.6795 75.6405 59.3358 75.8331 59.706 75.9843C60.081 76.131 60.3747 76.3465 60.5869 76.6307C60.7991 76.9149 60.9052 77.2679 60.9052 77.6896C60.9052 78.1022 60.7744 78.4918 60.5129 78.8586C60.2562 79.2207 59.8836 79.5026 59.3951 79.7043C58.9065 79.9014 58.3538 80 57.7369 80C56.7153 80 55.9356 79.8029 55.3977 79.4087C54.8647 79.0144 54.5242 78.4299 54.3761 77.6552Z" fill="#E81C1C"/>
<path d="M67.8689 79.835V78.7623C67.257 79.5874 66.4255 80 65.3743 80C64.9104 80 64.4761 79.9175 64.0714 79.7525C63.6717 79.5874 63.3731 79.3811 63.1757 79.1336C62.9832 78.8815 62.8475 78.5743 62.7686 78.2122C62.7143 77.9692 62.6871 77.5842 62.6871 77.057V72.5325H64.0196V76.5825C64.0196 77.2289 64.0468 77.6644 64.101 77.889C64.1849 78.2145 64.3626 78.4712 64.634 78.6591C64.9054 78.8425 65.241 78.9342 65.6408 78.9342C66.0405 78.9342 66.4156 78.8402 66.766 78.6523C67.1164 78.4597 67.3631 78.2007 67.5062 77.8753C67.6543 77.5452 67.7283 77.0685 67.7283 76.445V72.5325H69.0608V79.835H67.8689Z" fill="#E81C1C"/>
<path d="M70.8501 77.6552L72.1678 77.4627C72.2418 77.9532 72.4466 78.3291 72.7822 78.5904C73.1227 78.8517 73.5965 78.9823 74.2035 78.9823C74.8154 78.9823 75.2695 78.8677 75.5656 78.6385C75.8617 78.4047 76.0097 78.132 76.0097 77.8203C76.0097 77.5406 75.8789 77.3206 75.6174 77.1601C75.4348 77.0501 74.9808 76.9103 74.2553 76.7407C73.2782 76.5115 72.5996 76.3144 72.2196 76.1493C71.8445 75.9797 71.5583 75.7482 71.3609 75.4549C71.1684 75.1569 71.0722 74.8291 71.0722 74.4716C71.0722 74.1461 71.1512 73.8458 71.3091 73.5708C71.4719 73.2912 71.6915 73.0597 71.9679 72.8763C72.1752 72.7342 72.4565 72.615 72.8118 72.5187C73.1721 72.4179 73.557 72.3675 73.9666 72.3675C74.5835 72.3675 75.1239 72.45 75.5878 72.615C76.0566 72.78 76.4021 73.0047 76.6241 73.2889C76.8462 73.5685 76.9992 73.9444 77.0831 74.4165L75.7802 74.5816C75.721 74.2057 75.5483 73.9123 75.2621 73.7014C74.9808 73.4906 74.581 73.3851 74.0628 73.3851C73.4509 73.3851 73.0141 73.4791 72.7526 73.6671C72.491 73.855 72.3602 74.075 72.3602 74.3272C72.3602 74.4876 72.4145 74.632 72.5231 74.7604C72.6317 74.8933 72.8019 75.0033 73.0339 75.0904C73.1671 75.1363 73.5595 75.2417 74.2109 75.4067C75.1535 75.6405 75.8098 75.8331 76.18 75.9843C76.555 76.131 76.8487 76.3465 77.0609 76.6307C77.2731 76.9149 77.3792 77.2679 77.3792 77.6896C77.3792 78.1022 77.2484 78.4918 76.9869 78.8586C76.7302 79.2207 76.3576 79.5026 75.8691 79.7043C75.3805 79.9014 74.8278 80 74.2109 80C73.1893 80 72.4096 79.8029 71.8717 79.4087C71.3387 79.0144 70.9982 78.4299 70.8501 77.6552Z" fill="#E81C1C"/>
<path d="M79.1908 79.835V69.7545H80.5232V73.3714C81.145 72.7021 81.9297 72.3675 82.8772 72.3675C83.4596 72.3675 83.9654 72.4752 84.3948 72.6906C84.8241 72.9015 85.1301 73.1949 85.3127 73.5708C85.5002 73.9467 85.594 74.4922 85.594 75.2073V79.835H84.2615V75.2073C84.2615 74.5885 84.1159 74.1392 83.8248 73.8596C83.5385 73.5754 83.1314 73.4333 82.6033 73.4333C82.2085 73.4333 81.8359 73.5295 81.4855 73.7221C81.1401 73.91 80.8933 74.1667 80.7453 74.4922C80.5972 74.8177 80.5232 75.2669 80.5232 75.8399V79.835H79.1908Z" fill="#E81C1C"/>
<path d="M87.8645 71.1779V69.7545H89.197V71.1779H87.8645ZM87.8645 79.835V72.5325H89.197V79.835H87.8645Z" fill="#E81C1C"/>
<path d="M97.1358 79.835H95.8996V69.7545H97.232V73.3508C97.7946 72.6952 98.5127 72.3675 99.3862 72.3675C99.8698 72.3675 100.326 72.4591 100.756 72.6425C101.19 72.8213 101.545 73.0757 101.822 73.4058C102.103 73.7312 102.323 74.1255 102.48 74.5885C102.638 75.0515 102.717 75.5465 102.717 76.0737C102.717 77.3252 102.384 78.2924 101.718 78.9755C101.052 79.6585 100.252 80 99.3196 80C98.3918 80 97.6638 79.6402 97.1358 78.9204V79.835ZM97.121 76.1287C97.121 77.0043 97.2493 77.6369 97.5059 78.0265C97.9254 78.6637 98.4929 78.9823 99.2085 78.9823C99.7909 78.9823 100.294 78.7485 100.719 78.281C101.143 77.8088 101.355 77.1074 101.355 76.1769C101.355 75.2234 101.15 74.5197 100.741 74.0659C100.336 73.612 99.8451 73.3851 99.2677 73.3851C98.6854 73.3851 98.182 73.6212 97.7576 74.0934C97.3332 74.561 97.121 75.2394 97.121 76.1287Z" fill="#E81C1C"/>
<path d="M109.703 78.9342C109.21 79.3238 108.734 79.5989 108.275 79.7593C107.821 79.9198 107.332 80 106.809 80C105.945 80 105.281 79.8052 104.818 79.4155C104.354 79.0213 104.122 78.5193 104.122 77.9097C104.122 77.5521 104.208 77.2266 104.381 76.9332C104.559 76.6353 104.788 76.3969 105.069 76.2181C105.356 76.0393 105.676 75.9041 106.032 75.8124C106.293 75.7482 106.688 75.6863 107.216 75.6268C108.292 75.5076 109.084 75.3655 109.592 75.2004C109.597 75.0308 109.6 74.9231 109.6 74.8773C109.6 74.373 109.474 74.0177 109.222 73.8115C108.882 73.5318 108.376 73.392 107.705 73.392C107.078 73.392 106.614 73.4951 106.313 73.7014C106.017 73.9031 105.797 74.263 105.654 74.781L104.351 74.616C104.47 74.098 104.665 73.6808 104.936 73.3645C105.207 73.0436 105.6 72.7984 106.113 72.6288C106.626 72.4546 107.221 72.3675 107.897 72.3675C108.568 72.3675 109.114 72.4408 109.533 72.5875C109.953 72.7342 110.261 72.9198 110.458 73.1445C110.656 73.3645 110.794 73.6441 110.873 73.9834C110.917 74.1942 110.94 74.5747 110.94 75.1248V76.7751C110.94 77.9257 110.967 78.6546 111.021 78.9617C111.08 79.2643 111.194 79.5553 111.361 79.835H109.97C109.832 79.5783 109.743 79.278 109.703 78.9342ZM109.592 76.17C109.109 76.3533 108.383 76.5092 107.416 76.6376C106.868 76.7109 106.481 76.7934 106.254 76.8851C106.027 76.9768 105.851 77.112 105.728 77.2908C105.605 77.465 105.543 77.6598 105.543 77.8753C105.543 78.2053 105.676 78.4804 105.943 78.7004C106.214 78.9204 106.609 79.0305 107.127 79.0305C107.64 79.0305 108.097 78.9273 108.497 78.721C108.896 78.5102 109.19 78.2237 109.378 77.8615C109.521 77.5819 109.592 77.1693 109.592 76.6238V76.17Z" fill="#E81C1C"/>
<path d="M113.225 79.835V72.5325H114.424V73.6396C114.73 73.1216 115.011 72.78 115.268 72.615C115.53 72.45 115.816 72.3675 116.127 72.3675C116.576 72.3675 117.032 72.5004 117.496 72.7663L117.037 73.9146C116.711 73.7358 116.386 73.6464 116.06 73.6464C115.769 73.6464 115.507 73.7289 115.275 73.894C115.043 74.0544 114.878 74.279 114.779 74.5678C114.631 75.0079 114.557 75.4892 114.557 76.0118V79.835H113.225Z" fill="#E81C1C"/>
</svg>
