<svg width="40" height="40" viewBox="0 0 40 40" fill="none" xmlns="http://www.w3.org/2000/svg">
<path d="M16.25 24H32V21H19.25L16.25 24ZM8 24H11.95L24.55 11.55C24.75 11.35 24.85 11.1 24.85 10.8C24.85 10.5 24.75 10.25 24.55 10.05L21.8 7.55C21.6333 7.38333 21.425 7.3 21.175 7.3C20.925 7.3 20.7167 7.38333 20.55 7.55L8 20.3V24ZM0 40V3C0 2.23333 0.3 1.54167 0.9 0.925C1.5 0.308334 2.2 0 3 0H37C37.7667 0 38.4583 0.308334 39.075 0.925C39.6917 1.54167 40 2.23333 40 3V29C40 29.7667 39.6917 30.4583 39.075 31.075C38.4583 31.6917 37.7667 32 37 32H8L0 40ZM3 32.75L6.75 29H37V3H3V32.75ZM3 3V32.75V3Z" fill="#141414"/>
</svg>
