<svg width="32" height="32" viewBox="0 0 32 32" fill="none" xmlns="http://www.w3.org/2000/svg">
<g clip-path="url(#clip0_49_191)">
<path d="M31.9939 15.7876C31.9939 24.3962 24.9609 31.3749 16.2835 31.3749C13.5298 31.3749 10.943 30.6705 8.69119 29.4372L-0.00610352 32.1992L2.829 23.8337C1.39945 21.4859 0.576151 18.7291 0.576151 15.7865C0.577195 7.17793 7.60807 0.199219 16.2855 0.199219C24.962 0.201306 31.9939 7.17897 31.9939 15.7876ZM16.2824 2.68476C9.00006 2.68476 3.0763 8.56365 3.0763 15.7907C3.0763 18.6581 4.01124 21.3127 5.5921 23.4727L3.94342 28.3384L9.01676 26.7262C11.1037 28.0953 13.6007 28.8925 16.2824 28.8925C23.5648 28.8925 29.4906 23.0146 29.4906 15.7876C29.4927 8.56365 23.5658 2.68476 16.2824 2.68476ZM24.2169 19.3781C24.1189 19.2206 23.8622 19.1246 23.4782 18.9326C23.0952 18.7406 21.1992 17.8171 20.8476 17.6919C20.4928 17.5636 20.2361 17.4989 19.9794 17.8818C19.7259 18.2648 18.9871 19.1246 18.7607 19.3813C18.5363 19.6369 18.312 19.6693 17.9269 19.4804C17.5419 19.2863 16.3002 18.8856 14.8289 17.5844C13.6842 16.5702 12.911 15.3211 12.6877 14.9382C12.4612 14.5563 12.6647 14.3497 12.8557 14.1598C13.0278 13.9876 13.2407 13.7132 13.4338 13.4888C13.6268 13.2666 13.6904 13.109 13.8188 12.8533C13.945 12.5977 13.8814 12.3754 13.7864 12.1824C13.6904 11.9904 12.9214 10.1122 12.599 9.34729C12.2786 8.58348 11.9583 8.70973 11.7329 8.70973C11.5086 8.70973 11.2519 8.67843 10.9952 8.67843C10.7385 8.67843 10.3211 8.7713 9.96944 9.15425C9.61779 9.5372 8.62232 10.4607 8.62232 12.341C8.62232 14.2234 10.0007 16.038 10.1938 16.2926C10.3879 16.5462 12.8588 20.5312 16.7728 22.0609C20.689 23.5896 20.689 23.0793 21.3944 23.0146C22.1018 22.9499 23.6733 22.0912 23.9926 21.2C24.314 20.3047 24.314 19.5378 24.2169 19.3781Z" fill="#AEA7A7"/>
</g>
<defs>
<clipPath id="clip0_49_191">
<rect width="32" height="31.6757" fill="white"/>
</clipPath>
</defs>
</svg>
